<svg xmlns="http://www.w3.org/2000/svg" width="512" height="512"><path d="M371.372 64c-24.879-.943-39.862 26.346-34.759 48.572 1.765 24.343 31.093 39.486 51.966 27.021 31.247-17.186 22.173-77.04-17.207-75.594zm-214.304 109.566c-25.929 13.772-54.566 22.194-83.698 25.523 1.247 6.971-4.364 20.705 7.662 16.865 21.232-3.473 28.224 18.176 25.86 35.154-.357 51.584.406 103.2-.422 154.763 4.064 22.29-22.15 23-33.1 25.738 1.612 4.911-3.542 16.589 3.18 16.39h129.841c-1.601-5.588 3.513-18.016-3.145-18.452-18.779 2.948-38.954-8.177-35.991-29.515-.159-50.572-.025-101.159-.069-151.737 13.296-17.293 25.798-39.646 48.432-45.292 23.639-2.806 18.004 30.407 35.54 38.283 16.371 10 35.715-5.899 33.068-23.687.434-27.985-28.634-47.958-54.926-43.679-26.961 2.431-46.789 23.774-62.114 44.139-2.631-4.301-1.065-13.033-2.069-19.051l-1.15-21.189-6.898-4.254zm240.747 0c-28.391 13.214-58.78 22.509-90.022 25.523 1.027 7.519-4.239 21.272 8.659 16.793 22.721-4.583 30.454 17.801 27.422 36.043-.527 51.875.617 103.813-.649 155.649 3.47 23.789-27.293 18.841-35.432 25.095 1.591 4.932-3.898 16.945 4.24 15.33h126.596c-1.506-5.545 3.229-17.498-2.764-18.438-20.233 4.195-34.543-12.5-31.211-32.042.132-73.385.022-146.774.058-220.16l-6.898-3.794z" fill="#333"/></svg>