<?xml version="1.0" encoding="UTF-8" standalone="no"?>
<svg
  xmlns="http://www.w3.org/2000/svg"
  version="1.1"
  width="512"
  height="512"
  viewbox="0 0 512 512">
  <path
    d="m 371.37245,63.999998 c -24.87862,-0.942906 -39.86165,26.346304 -34.75887,48.572212 1.76511,24.34274 31.09295,39.48566 51.96582,27.02148 31.24729,-17.186 22.17257,-77.03986 -17.20695,-75.593692 z M 157.06826,173.56647 c -25.92883,13.77204 -54.5656,22.19445 -83.698202,25.52335 1.247305,6.97095 -4.364339,20.70465 7.662083,16.86456 21.232169,-3.47304 28.223619,18.17642 25.860099,35.15386 -0.35741,51.58354 0.40644,103.19975 -0.42244,154.76333 4.06377,22.29016 -22.149951,23.00005 -33.099742,25.73814 1.612442,4.91093 -3.542454,16.5892 3.179835,16.39029 43.280177,0 86.560347,0 129.840527,0 -1.60103,-5.58752 3.51289,-18.01606 -3.14509,-18.45167 -18.77923,2.94751 -38.9541,-8.17747 -35.99056,-29.51462 -0.15908,-50.57189 -0.0247,-101.15874 -0.0691,-151.7367 13.29614,-17.29318 25.7981,-39.64593 48.43161,-45.29233 23.63896,-2.80569 18.00443,30.40658 35.5396,38.28278 16.37052,10.00002 35.71514,-5.89911 33.0683,-23.68746 0.43443,-27.9852 -28.63402,-47.95809 -54.92553,-43.67919 -26.96091,2.43054 -46.78857,23.7738 -62.11398,44.13907 -2.63114,-4.30056 -1.06488,-13.03257 -2.06893,-19.05096 -0.38341,-7.06285 -0.76683,-14.12571 -1.15024,-21.18856 -2.2994,-1.41796 -4.5988,-2.83593 -6.8982,-4.25389 z m 240.7473,0 c -28.39062,13.21392 -58.77959,22.5093 -90.02155,25.52335 1.02688,7.51866 -4.23916,21.27165 8.65874,16.79311 22.721,-4.58349 30.45363,17.80096 27.42188,36.04294 -0.52653,51.87527 0.61731,103.8127 -0.64901,155.64898 3.46998,23.78869 -27.2932,18.84074 -35.43161,25.0948 1.59131,4.93207 -3.89842,16.94518 4.23978,15.33035 42.19872,0 84.39743,0 126.59615,0 -1.50633,-5.54527 3.22903,-17.4979 -2.76362,-18.43778 -20.23309,4.19506 -34.54322,-12.49967 -31.21058,-32.04169 0.13211,-73.38451 0.0218,-146.7737 0.058,-220.16005 -2.2994,-1.26467 -4.59881,-2.52934 -6.89821,-3.79401 z"
    style="fill:#333333"/>
</svg>
